<svg xmlns="http://www.w3.org/2000/svg" width="120" height="120" viewBox="0 0 31.75 31.75"><path d="M36.507 45.56h31.75v31.75h-31.75z" style="fill:#6f0f16;stroke:none;stroke-width:1;stroke-linecap:round;fill-opacity:1" transform="translate(-36.507 -45.56)"/><path d="M61.862 101.669c.94-2.727-3.935-4.514-8.471-3.58l9.976-10.187s9.18 2.748 7.64 8.837c-1.678 6.631-13.03 24.624 16.229 27.378 1.97-4.533 4.757-29.146 4.086-47.85-5.822-1.015-15.502-.163-20.081.6l-.055-7.13s17.633 2.192 20.465 2.406c0-5.606.014-10.768-.351-15.904h6.145c-.365 5.136-.52 10.663-.52 16.269 3.197-.467 20.634-2.77 20.634-2.77l-.055 7.13c-4.579-.764-14.259-1.616-20.08-.601-.672 18.704 2.115 43.317 4.085 47.85 29.26-2.754 17.907-20.747 16.23-27.378-1.54-6.089 7.64-8.837 7.64-8.837l9.975 10.187c-4.536-.934-9.41.853-8.471 3.58 14.3 41.493-28.866 37.6-32.417 37.6s-46.903 3.893-32.604-37.6z" style="fill:none;stroke:#fbeada;stroke-width:3.43068;stroke-linecap:round;stroke-dasharray:none;stroke-opacity:1" transform="matrix(-.29154 0 0 .29144 43.388 -12.629)"/></svg>